{
    "asset" : {
        "generator" : "Khronos glTF Blender I/O v1.3.48",
        "version" : "2.0"
    },
    "scene" : 0,
    "scenes" : [
        {
            "name" : "Scene",
            "nodes" : [
                2
            ]
        }
    ],
    "nodes" : [
        {
            "mesh" : 0,
            "name" : "\u5b9a\u4f4d_1",
            "translation" : [
                -0.04349822178483009,
                -0.17500406503677368,
                3.049069881439209
            ]
        },
        {
            "mesh" : 1,
            "name" : "\u7ea2\u5e95",
            "translation" : [
                0.001156867598183453,
                0.005758380051702261,
                -0.08109228312969208
            ]
        },
        {
            "children" : [
                0,
                1
            ],
            "name" : "\u5b9a\u4f4d",
            "rotation" : [
                0.6746544241905212,
                0.21175800263881683,
                -0.21175801753997803,
                0.6746543645858765
            ],
            "scale" : [
                0.019678466022014618,
                0.019678466022014618,
                0.019678466022014618
            ],
            "translation" : [
                -2.7919023036956787,
                1.3947758674621582,
                5.7746405601501465
            ]
        }
    ],
    "animations" : [
        {
            "channels" : [
                {
                    "sampler" : 0,
                    "target" : {
                        "node" : 2,
                        "path" : "rotation"
                    }
                }
            ],
            "name" : "\u5b9a\u4f4dAction.001",
            "samplers" : [
                {
                    "input" : 8,
                    "interpolation" : "LINEAR",
                    "output" : 9
                }
            ]
        }
    ],
    "materials" : [
        {
            "doubleSided" : true,
            "emissiveFactor" : [
                0,
                0,
                0
            ],
            "name" : "\u6750\u8d28.054",
            "pbrMetallicRoughness" : {
                "baseColorFactor" : [
                    1,
                    1,
                    1,
                    1
                ],
                "metallicFactor" : 1,
                "roughnessFactor" : 0.4343145787715912
            }
        },
        {
            "doubleSided" : true,
            "emissiveFactor" : [
                0,
                0,
                0
            ],
            "name" : "\u80cc\u666f.1",
            "pbrMetallicRoughness" : {
                "baseColorFactor" : [
                    0.8999999761581421,
                    0.3149999976158142,
                    0.3930000066757202,
                    1
                ],
                "metallicFactor" : 1,
                "roughnessFactor" : 0.4343145787715912
            }
        }
    ],
    "meshes" : [
        {
            "name" : "\u7f51\u683c.003",
            "primitives" : [
                {
                    "attributes" : {
                        "POSITION" : 0,
                        "NORMAL" : 1,
                        "TEXCOORD_0" : 2
                    },
                    "indices" : 3,
                    "material" : 0
                }
            ]
        },
        {
            "name" : "\u7f51\u683c.004",
            "primitives" : [
                {
                    "attributes" : {
                        "POSITION" : 4,
                        "NORMAL" : 5,
                        "TEXCOORD_0" : 6
                    },
                    "indices" : 7,
                    "material" : 1
                }
            ]
        }
    ],
    "accessors" : [
        {
            "bufferView" : 0,
            "componentType" : 5126,
            "count" : 50,
            "max" : [
                2.85564923286438,
                7.060987949371338,
                6.1177897453308105
            ],
            "min" : [
                -2.85564923286438,
                -7.141891956329346,
                -7.466896057128906
            ],
            "type" : "VEC3"
        },
        {
            "bufferView" : 1,
            "componentType" : 5126,
            "count" : 50,
            "type" : "VEC3"
        },
        {
            "bufferView" : 2,
            "componentType" : 5126,
            "count" : 50,
            "type" : "VEC2"
        },
        {
            "bufferView" : 3,
            "componentType" : 5123,
            "count" : 108,
            "type" : "SCALAR"
        },
        {
            "bufferView" : 4,
            "componentType" : 5126,
            "count" : 1508,
            "max" : [
                2.148740291595459,
                11.161215782165527,
                25.68842124938965
            ],
            "min" : [
                -2.148740291595459,
                -11.555586814880371,
                -8.334623336791992
            ],
            "type" : "VEC3"
        },
        {
            "bufferView" : 5,
            "componentType" : 5126,
            "count" : 1508,
            "type" : "VEC3"
        },
        {
            "bufferView" : 6,
            "componentType" : 5126,
            "count" : 1508,
            "type" : "VEC2"
        },
        {
            "bufferView" : 7,
            "componentType" : 5123,
            "count" : 4500,
            "type" : "SCALAR"
        },
        {
            "bufferView" : 8,
            "componentType" : 5126,
            "count" : 251,
            "max" : [
                8.333333333333334
            ],
            "min" : [
                0
            ],
            "type" : "SCALAR"
        },
        {
            "bufferView" : 9,
            "componentType" : 5126,
            "count" : 251,
            "type" : "VEC4"
        }
    ],
    "bufferViews" : [
        {
            "buffer" : 0,
            "byteLength" : 600,
            "byteOffset" : 0
        },
        {
            "buffer" : 0,
            "byteLength" : 600,
            "byteOffset" : 600
        },
        {
            "buffer" : 0,
            "byteLength" : 400,
            "byteOffset" : 1200
        },
        {
            "buffer" : 0,
            "byteLength" : 216,
            "byteOffset" : 1600
        },
        {
            "buffer" : 0,
            "byteLength" : 18096,
            "byteOffset" : 1816
        },
        {
            "buffer" : 0,
            "byteLength" : 18096,
            "byteOffset" : 19912
        },
        {
            "buffer" : 0,
            "byteLength" : 12064,
            "byteOffset" : 38008
        },
        {
            "buffer" : 0,
            "byteLength" : 9000,
            "byteOffset" : 50072
        },
        {
            "buffer" : 0,
            "byteLength" : 1004,
            "byteOffset" : 59072
        },
        {
            "buffer" : 0,
            "byteLength" : 4016,
            "byteOffset" : 60076
        }
    ],
    "buffers" : [
        {
            "byteLength" : 64092,
            "uri" : "data:application/octet-stream;base64,"
        }
    ]
}
